<?xml version="1.0" encoding="utf-8"?>
<!-- Generator: Adobe Illustrator 23.0.4, SVG Export Plug-In . SVG Version: 6.00 Build 0)  -->
<svg version="1.1" id="レイヤー_1" xmlns="http://www.w3.org/2000/svg" xmlns:xlink="http://www.w3.org/1999/xlink" x="0px"
	 y="0px" viewBox="0 0 80 80" style="enable-background:new 0 0 80 80;" xml:space="preserve">
<style type="text/css">
	.st0{fill:none;}
	.st1{fill:#EA5548;}
</style>
<g id="グループ_183" transform="translate(-33 -8421)">
	<rect id="長方形_24" x="33" y="8421" class="st0" width="80" height="80"/>
	<g id="グループ_25" transform="translate(-1087 8421)">
		<g id="楕円形_16" transform="translate(1148 28)">
			<circle class="st0" cx="12.5" cy="12.5" r="12.5"/>
			<path class="st1" d="M12.5,25C5.6,25,0,19.4,0,12.5C0,5.6,5.6,0,12.5,0S25,5.6,25,12.5C25,19.4,19.4,25,12.5,25z M12.5,3
				C7.3,3,3,7.3,3,12.5c0,5.2,4.3,9.5,9.5,9.5s9.5-4.3,9.5-9.5C22,7.3,17.7,3,12.5,3z"/>
		</g>
		<path class="st1" d="M1164.5,39h-2.5v-2.5c0-0.8-0.7-1.5-1.5-1.5s-1.5,0.7-1.5,1.5V39h-2.5c-0.8,0-1.5,0.7-1.5,1.5
			s0.7,1.5,1.5,1.5h2.5v2.5c0,0.8,0.7,1.5,1.5,1.5s1.5-0.7,1.5-1.5V42h2.5c0.8,0,1.5-0.7,1.5-1.5S1165.3,39,1164.5,39z"/>
	</g>
</g>
</svg>
