<?xml version="1.0" encoding="utf-8"?>
<!-- Generator: Adobe Illustrator 23.0.4, SVG Export Plug-In . SVG Version: 6.00 Build 0)  -->
<svg version="1.1" id="レイヤー_1" xmlns="http://www.w3.org/2000/svg" xmlns:xlink="http://www.w3.org/1999/xlink" x="0px"
	 y="0px" viewBox="0 0 80 80" style="enable-background:new 0 0 80 80;" xml:space="preserve">
<style type="text/css">
	.st0{fill:none;}
	.st1{fill:#EA5548;}
</style>
<g id="グループ_185" transform="translate(-1303 -12301)">
	<rect id="長方形_26" x="1303" y="12301" class="st0" width="80" height="80"/>
	<g>
		<path class="st1" d="M1334.5,12346c0.8,0,1.5-0.7,1.5-1.5v-6c0-0.8-0.7-1.5-1.5-1.5s-1.5,0.7-1.5,1.5v6
			C1333,12345.3,1333.7,12346,1334.5,12346z"/>
		<path class="st1" d="M1346.5,12346c0.8,0,1.5-0.7,1.5-1.5v-5c0-0.8-0.7-1.5-1.5-1.5s-1.5,0.7-1.5,1.5v5
			C1345,12345.3,1345.7,12346,1346.5,12346z"/>
		<path class="st1" d="M1340.5,12346c0.8,0,1.5-0.7,1.5-1.5v-9c0-0.8-0.7-1.5-1.5-1.5s-1.5,0.7-1.5,1.5v9
			C1339,12345.3,1339.7,12346,1340.5,12346z"/>
		<path class="st1" d="M1352.5,12331c-0.8,0-1.5,0.7-1.5,1.5v12c0,0.8,0.7,1.5,1.5,1.5s1.5-0.7,1.5-1.5v-12
			C1354,12331.7,1353.3,12331,1352.5,12331z"/>
		<path class="st1" d="M1352.5,12349h-18c-0.8,0-1.5,0.7-1.5,1.5s0.7,1.5,1.5,1.5h18c0.8,0,1.5-0.7,1.5-1.5
			S1353.3,12349,1352.5,12349z"/>
	</g>
</g>
</svg>
