<?xml version="1.0" encoding="utf-8"?>
<!-- Generator: Adobe Illustrator 23.0.4, SVG Export Plug-In . SVG Version: 6.00 Build 0)  -->
<svg version="1.1" id="レイヤー_1" xmlns="http://www.w3.org/2000/svg" xmlns:xlink="http://www.w3.org/1999/xlink" x="0px"
	 y="0px" viewBox="0 0 21.3 15.6" style="enable-background:new 0 0 21.3 15.6;" xml:space="preserve">
<style type="text/css">
	.st0{fill:#333333;}
</style>
<g id="グループ_197" transform="translate(-1824 -853.793)">
	<path class="st0" d="M1837.6,869.1c-0.1,0-0.3,0-0.4-0.1c-0.2-0.2-0.2-0.5,0-0.7l6.7-6.7l-6.7-6.7c-0.2-0.2-0.2-0.5,0-0.7
		s0.5-0.2,0.7,0l7.1,7.1c0.1,0.1,0.1,0.2,0.1,0.4s-0.1,0.3-0.1,0.4l-7.1,7.1C1837.8,869.1,1837.7,869.1,1837.6,869.1z"/>
	<path class="st0" d="M1844.5,862h-20c-0.3,0-0.5-0.2-0.5-0.5s0.2-0.5,0.5-0.5h20c0.3,0,0.5,0.2,0.5,0.5S1844.8,862,1844.5,862z"/>
</g>
</svg>
