<?xml version="1.0" encoding="utf-8"?>
<!-- Generator: Adobe Illustrator 23.0.4, SVG Export Plug-In . SVG Version: 6.00 Build 0)  -->
<svg version="1.1" id="レイヤー_1" xmlns="http://www.w3.org/2000/svg" xmlns:xlink="http://www.w3.org/1999/xlink" x="0px"
	 y="0px" viewBox="0 0 16 16" style="enable-background:new 0 0 16 16;" xml:space="preserve">
<style type="text/css">
	.st0{fill:none;}
	.st1{fill:#EA5548;}
	.st2{fill:#316901;}
</style>
<g id="グループ_194" transform="translate(-604 -8728)">
	<g id="楕円形_17" transform="translate(604 8728)">
		<circle class="st0" cx="8" cy="8" r="8"/>
		<path class="st1" d="M8,16c-4.4,0-8-3.6-8-8c0-4.4,3.6-8,8-8s8,3.6,8,8C16,12.4,12.4,16,8,16z M8,2C4.7,2,2,4.7,2,8
			c0,3.3,2.7,6,6,6s6-2.7,6-6C14,4.7,11.3,2,8,2z"/>
	</g>
	<polygon class="st2" points="610.6,8739.3 607.8,8736.4 609.2,8735 610.6,8736.4 614.2,8732.9 615.6,8734.3 	"/>
</g>
</svg>
