<?xml version="1.0" encoding="utf-8"?>
<!-- Generator: Adobe Illustrator 23.0.4, SVG Export Plug-In . SVG Version: 6.00 Build 0)  -->
<svg version="1.1" id="レイヤー_1" xmlns="http://www.w3.org/2000/svg" xmlns:xlink="http://www.w3.org/1999/xlink" x="0px"
	 y="0px" viewBox="0 0 80 80" style="enable-background:new 0 0 80 80;" xml:space="preserve">
<style type="text/css">
	.st0{fill:none;}
	.st1{fill:#FCFCFC;}
</style>
<g id="グループ_182" transform="translate(-33 -8501)">
	<rect id="長方形_25" x="33" y="8501" class="st0" width="80" height="80"/>
	<g>
		<path class="st1" d="M64.5,8536h18c0.8,0,1.5-0.7,1.5-1.5s-0.7-1.5-1.5-1.5h-18c-0.8,0-1.5,0.7-1.5,1.5S63.7,8536,64.5,8536z"/>
		<path class="st1" d="M82.5,8541h-18c-0.8,0-1.5,0.7-1.5,1.5s0.7,1.5,1.5,1.5h18c0.8,0,1.5-0.7,1.5-1.5S83.3,8541,82.5,8541z"/>
		<path class="st1" d="M82.5,8549h-18c-0.8,0-1.5,0.7-1.5,1.5s0.7,1.5,1.5,1.5h18c0.8,0,1.5-0.7,1.5-1.5S83.3,8549,82.5,8549z"/>
	</g>
</g>
</svg>
