<?xml version="1.0" encoding="utf-8"?>
<!-- Generator: Adobe Illustrator 23.0.4, SVG Export Plug-In . SVG Version: 6.00 Build 0)  -->
<svg version="1.1" id="レイヤー_1" xmlns="http://www.w3.org/2000/svg" xmlns:xlink="http://www.w3.org/1999/xlink" x="0px"
	 y="0px" viewBox="0 0 50 50" style="enable-background:new 0 0 50 50;" xml:space="preserve">
<style type="text/css">
	.st0{fill:none;}
	.st1{fill:#EA5548;}
</style>
<g id="グループ_192" transform="translate(-659 -8627)">
	<rect id="長方形_21" x="659" y="8627" class="st0" width="50" height="50"/>
	<g>
		<path class="st1" d="M680.5,8645H678c-0.6,0-1,0.4-1,1v13c0,0.6,0.4,1,1,1h2.5c0.6,0,1-0.4,1-1v-13
			C681.5,8645.4,681.1,8645,680.5,8645z"/>
		<path class="st1" d="M690,8645h-2.5c-0.6,0-1,0.4-1,1v13c0,0.6,0.4,1,1,1h2.5c0.6,0,1-0.4,1-1v-13C691,8645.4,690.6,8645,690,8645
			z"/>
	</g>
</g>
</svg>
