<?xml version="1.0" encoding="utf-8"?>
<!-- Generator: Adobe Illustrator 23.0.4, SVG Export Plug-In . SVG Version: 6.00 Build 0)  -->
<svg version="1.1" id="レイヤー_1" xmlns="http://www.w3.org/2000/svg" xmlns:xlink="http://www.w3.org/1999/xlink" x="0px"
	 y="0px" viewBox="0 0 50 50" style="enable-background:new 0 0 50 50;" xml:space="preserve">
<style type="text/css">
	.st0{fill:none;}
	.st1{fill:#EA5548;}
</style>
<g id="グループ_193" transform="translate(-784 -8627)">
	<rect id="長方形_22" x="784" y="8627" class="st0" width="50" height="50"/>
	<g id="グループ_11" transform="translate(134 8010)">
		<path class="st1" d="M675,632c-5.5,0-10,4.5-10,10h-2.8c-0.1,0-0.3,0.1-0.4,0.1c-0.2,0.2-0.2,0.5,0,0.7l4.8,4.8
			c0.2,0.2,0.5,0.2,0.7,0l4.8-4.8c0.1-0.1,0.1-0.2,0.1-0.4c0-0.3-0.2-0.5-0.5-0.5H669c0-3.3,2.7-6,6-6s6,2.7,6,6s-2.7,6-6,6
			c-1.1,0-2,0.9-2,2s0.9,2,2,2c5.5,0,10-4.5,10-10C685,636.5,680.5,632,675,632z"/>
	</g>
</g>
</svg>
