<?xml version="1.0" encoding="utf-8"?>
<!-- Generator: Adobe Illustrator 23.0.4, SVG Export Plug-In . SVG Version: 6.00 Build 0)  -->
<svg version="1.1" id="レイヤー_1" xmlns="http://www.w3.org/2000/svg" xmlns:xlink="http://www.w3.org/1999/xlink" x="0px"
	 y="0px" viewBox="0 0 80 80" style="enable-background:new 0 0 80 80;" xml:space="preserve">
<style type="text/css">
	.st0{fill:none;}
	.st1{fill:#FCFCFC;}
</style>
<g id="グループ_180" transform="translate(-33 -8661)">
	<rect id="長方形_37" x="33" y="8661" class="st0" width="80" height="80"/>
	<path class="st1" d="M80.3,8692.4l-5-0.4c0,0,0,0,0,0c0,0-0.1,0-0.1,0c0,0-0.1,0-0.1,0c0,0-0.1,0-0.1,0c-0.1,0-0.1,0-0.2,0
		c0,0-0.1,0-0.1,0c-0.1,0-0.1,0-0.2,0.1c0,0,0,0-0.1,0c-0.1,0-0.1,0.1-0.2,0.1c0,0,0,0-0.1,0.1c0,0-0.1,0.1-0.1,0.1
		c0,0,0,0.1-0.1,0.1c0,0-0.1,0.1-0.1,0.2c0,0,0,0.1-0.1,0.1c0,0.1,0,0.1-0.1,0.2c0,0,0,0.1,0,0.1c0,0.1,0,0.1,0,0.2c0,0,0,0.1,0,0.1
		c0,0,0,0,0,0.1c0,0,0,0,0,0.1v6.9c-1.3-0.6-2.8-0.8-4.2-0.3c-3,0.7-4.9,3.7-4.3,6.7c0.4,1.4,1.4,2.6,2.7,3.2
		c0.8,0.4,1.7,0.6,2.7,0.6c0.6,0,1.1-0.1,1.7-0.2c2.6-0.6,4.4-2.9,4.4-5.5c0-0.1,0-0.2,0-0.4v-9.4l3.4,0.3c0.8,0.1,1.6-0.5,1.6-1.4
		C81.8,8693.2,81.1,8692.5,80.3,8692.4z M71.5,8707.5c-0.7,0.2-1.5,0.1-2.2-0.2c-0.6-0.3-1-0.7-1.2-1.3c-0.2-1.4,0.8-2.8,2.2-3h0
		c1.4-0.5,2.9,0.2,3.4,1.5C73.9,8705.9,72.9,8707.2,71.5,8707.5z"/>
</g>
</svg>
