<?xml version="1.0" encoding="utf-8"?>
<!-- Generator: Adobe Illustrator 23.0.4, SVG Export Plug-In . SVG Version: 6.00 Build 0)  -->
<svg version="1.1" id="レイヤー_1" xmlns="http://www.w3.org/2000/svg" xmlns:xlink="http://www.w3.org/1999/xlink" x="0px"
	 y="0px" viewBox="0 0 80 80" style="enable-background:new 0 0 80 80;" xml:space="preserve">
<style type="text/css">
	.st0{fill:none;}
	.st1{fill:#EA5548;}
</style>
<g id="グループ_184" transform="translate(-1303 -13311)">
	<rect id="長方形_37" x="1303" y="13311" class="st0" width="80" height="80"/>
	<path class="st1" d="M1350.3,13342.4l-5-0.4c0,0,0,0,0,0c0,0-0.1,0-0.1,0c0,0-0.1,0-0.1,0c0,0-0.1,0-0.1,0c-0.1,0-0.1,0-0.2,0
		c0,0-0.1,0-0.1,0c-0.1,0-0.1,0-0.2,0.1c0,0,0,0-0.1,0c-0.1,0-0.1,0.1-0.2,0.1c0,0,0,0-0.1,0.1c0,0-0.1,0.1-0.1,0.1
		c0,0,0,0.1-0.1,0.1c0,0-0.1,0.1-0.1,0.1c0,0,0,0.1-0.1,0.1c0,0.1,0,0.1-0.1,0.2c0,0,0,0.1,0,0.1c0,0.1,0,0.1,0,0.2c0,0,0,0.1,0,0.1
		c0,0,0,0,0,0.1c0,0,0,0,0,0.1v6.9c-1.3-0.6-2.8-0.8-4.2-0.3c-3,0.7-4.9,3.7-4.3,6.7c0.4,1.4,1.4,2.6,2.7,3.2
		c0.8,0.4,1.7,0.6,2.7,0.6c0.6,0,1.1-0.1,1.7-0.2c2.6-0.6,4.4-2.9,4.4-5.5c0-0.1,0.1-0.2,0.1-0.4v-9.4l3.3,0.3
		c0.8,0.1,1.6-0.5,1.6-1.4C1351.8,13343.2,1351.1,13342.5,1350.3,13342.4z M1341.5,13357.5c-0.7,0.2-1.5,0.1-2.2-0.2
		c-0.6-0.3-1-0.7-1.2-1.3c-0.2-1.4,0.8-2.8,2.2-3h0c1.4-0.5,2.9,0.2,3.4,1.5C1343.9,13355.9,1342.9,13357.2,1341.5,13357.5z"/>
</g>
</svg>
